# xmcd CD database file
#
# Track frame offsets:
#	150
#	15511
#	33365
#	46327
#	61331
#	75581
#	89662
#	105136
#	124529
#	142501
#	158095
#	173056
#	188360
#	203435
#	224162
#	238634
#	260596
#
# Disc length: 3718 seconds
#
# Revision: 0
# Processed by: cddbd v1.5.2PL0 Copyright (c) Steve Scherf et al.
# Submitted via: CDex 1.70beta2
#
DISCID=ce0e8411
DTITLE=B.B. and The Blues Shacks - Come Along
DYEAR=2012
DGENRE=Blues
TTITLE0=True Love in Vain
TTITLE1=Love Like Cash
TTITLE2=Come Along with me
TTITLE3=If I Should Ever Lose Your Love
TTITLE4=Get My Stuff Together
TTITLE5=Will You Be There
TTITLE6=Fool me
TTITLE7=Don't Take Your Time
TTITLE8=The Door
TTITLE9=Anything You Do
TTITLE10=Doesn't Matter Anymore
TTITLE11=Wait in Line
TTITLE12=Just Don't Get It
TTITLE13=Whatever You Do
TTITLE14=You Can Always Depend on me
TTITLE15=Raise Your Voice
TTITLE16=She Moves Me
EXTD=YEAR: 2012
EXTT0=
EXTT1=
EXTT2=
EXTT3=
EXTT4=
EXTT5=
EXTT6=
EXTT7=
EXTT8=
EXTT9=
EXTT10=
EXTT11=
EXTT12=
EXTT13=
EXTT14=
EXTT15=
EXTT16=
PLAYORDER=
